<?xml version="1.0" encoding="UTF-8" standalone="no"?>
<svg width="100px" height="100px" viewBox="0 0 100 100" version="1.1" xmlns="http://www.w3.org/2000/svg" xmlns:xlink="http://www.w3.org/1999/xlink">
    <!-- Generator: Sketch 3.6.1 (26313) - http://www.bohemiancoding.com/sketch -->
    <title>airplane</title>
    <desc>Created with Sketch.</desc>
    <defs></defs>
    <g id="Page-1" stroke="none" stroke-width="1" fill="none" fill-rule="evenodd">
        <g id="airplane">
            <path d="M65.1358333,0 C75.175,0 80.1933333,0 85.5975,1.70833333 C91.4975,3.85583333 96.1441667,8.5025 98.2916667,14.4025 C100,19.8058333 100,24.8258333 100,34.8641667 L100,65.1358333 C100,75.175 100,80.1933333 98.2916667,85.5975 C96.1441667,91.4975 91.4975,96.1441667 85.5975,98.2908333 C80.1933333,100 75.175,100 65.1358333,100 L34.8641667,100 C24.825,100 19.8058333,100 14.4025,98.2908333 C8.5025,96.1441667 3.85583333,91.4975 1.70833333,85.5975 C0,80.1933333 0,75.175 0,65.1358333 L0,34.8641667 C0,24.8258333 0,19.8058333 1.70833333,14.4025 C3.85583333,8.5025 8.5025,3.85583333 14.4025,1.70833333 C19.8058333,0 24.825,0 34.8641667,0 L65.1358333,0 Z" id="Icon-Shape" fill="#FF9700"></path>
            <path d="M75.563,56.195 L75.573,56.18 L56,42.479 L56,28 C56,24.687 53.313,22 50,22 C46.687,22 44,24.687 44,28 L44,42.479 L24.427,56.181 L24.438,56.196 C24.18,56.377 24,56.661 24,57 L24,61 C24,61.553 24.447,62 25,62 C25.131,62 25.255,61.972 25.37,61.926 L25.371,61.929 L25.389,61.922 L25.39,61.922 L44,54.477 L44,66.586 L38.293,72.293 C38.112,72.474 38,72.725 38,73 L38,77 C38,77.553 38.447,78 39,78 C39.174,78 39.33,77.943 39.472,77.865 L39.479,77.878 L50,72.14 L60.521,77.878 L60.528,77.865 C60.671,77.943 60.826,78 61,78 C61.553,78 62,77.553 62,77 L62,73 C62,72.725 61.888,72.475 61.707,72.293 L56,66.586 L56,54.477 L74.61,61.922 L74.611,61.922 L74.629,61.929 L74.63,61.926 C74.745,61.972 74.869,62 75,62 C75.553,62 76,61.553 76,61 L76,57 C76,56.661 75.82,56.377 75.563,56.195 L75.563,56.195 Z M74,59.523 L55.371,52.071 L55.37,52.075 C55.255,52.029 55.131,52 55,52 C54.447,52 54,52.448 54,53 L54,67 C54,67.276 54.112,67.526 54.293,67.707 L60,73.414 L60,75.315 L50.479,70.122 L50.472,70.135 C50.329,70.057 50.174,70 50,70 C49.826,70 49.671,70.057 49.528,70.135 L49.521,70.122 L40,75.315 L40,73.414 L45.707,67.707 C45.888,67.526 46,67.276 46,67 L46,53 C46,52.448 45.553,52 45,52 C44.869,52 44.745,52.029 44.63,52.075 L44.629,52.071 L26,59.523 L26,57.52 L45.573,43.819 L45.563,43.804 C45.82,43.624 46,43.339 46,43 L46,34 L46,32.443 L46,28 C46,25.791 47.791,24 50,24 C52.209,24 54,25.791 54,28 L54,32.443 L54,34 L54,43 C54,43.339 54.18,43.624 54.438,43.805 L54.427,43.82 L74,57.521 L74,59.523 L74,59.523 Z" id="Shape" fill="#FFFFFF"></path>
        </g>
    </g>
</svg>