<?xml version="1.0" encoding="UTF-8" standalone="no"?>
<svg width="100px" height="100px" viewBox="0 0 100 100" version="1.1" xmlns="http://www.w3.org/2000/svg" xmlns:xlink="http://www.w3.org/1999/xlink">
    <!-- Generator: Sketch 3.6.1 (26313) - http://www.bohemiancoding.com/sketch -->
    <title>lock</title>
    <desc>Created with Sketch.</desc>
    <defs></defs>
    <g id="Page-1" stroke="none" stroke-width="1" fill="none" fill-rule="evenodd">
        <g id="lock">
            <path d="M65.1358333,0 C75.175,0 80.1933333,0 85.5975,1.70833333 C91.4975,3.85583333 96.1441667,8.5025 98.2916667,14.4025 C100,19.8058333 100,24.8258333 100,34.8641667 L100,65.1358333 C100,75.175 100,80.1933333 98.2916667,85.5975 C96.1441667,91.4975 91.4975,96.1441667 85.5975,98.2908333 C80.1933333,100 75.175,100 65.1358333,100 L34.8641667,100 C24.825,100 19.8058333,100 14.4025,98.2908333 C8.5025,96.1441667 3.85583333,91.4975 1.70833333,85.5975 C0,80.1933333 0,75.175 0,65.1358333 L0,34.8641667 C0,24.8258333 0,19.8058333 1.70833333,14.4025 C3.85583333,8.5025 8.5025,3.85583333 14.4025,1.70833333 C19.8058333,0 24.825,0 34.8641667,0 L65.1358333,0 Z" id="Icon-Shape" fill="#04C48C"></path>
            <path d="M67,41 L63,41 L63,33 C63,25.82 57.18,20 50,20 C42.82,20 37,25.82 37,33 L37,41 L33,41 C30.791,41 29,42.791 29,45 L29,71 C29,73.209 30.791,75 33,75 L67,75 C69.209,75 71,73.209 71,71 L71,45 C71,42.791 69.209,41 67,41 L67,41 Z M39,33 C39,26.925 43.925,22 50,22 C56.075,22 61,26.925 61,33 L61,41 L39,41 L39,33 L39,33 Z M69,71 C69,72.104 68.104,73 67,73 L33,73 C31.896,73 31,72.104 31,71 L31,45 C31,43.896 31.896,43 33,43 L67,43 C68.104,43 69,43.896 69,45 L69,71 L69,71 Z M50,53 C48.343,53 47,54.344 47,56 C47,57.305 47.838,58.403 49,58.816 L49,62 C49,62.553 49.447,63 50,63 C50.553,63 51,62.553 51,62 L51,58.816 C52.162,58.403 53,57.304 53,56 C53,54.344 51.657,53 50,53 L50,53 Z" id="Shape" fill="#FFFFFF"></path>
        </g>
    </g>
</svg>