<?xml version="1.0" encoding="UTF-8" standalone="no"?>
<svg width="100px" height="100px" viewBox="0 0 100 100" version="1.1" xmlns="http://www.w3.org/2000/svg" xmlns:xlink="http://www.w3.org/1999/xlink">
    <!-- Generator: Sketch 3.6.1 (26313) - http://www.bohemiancoding.com/sketch -->
    <title>qr</title>
    <desc>Created with Sketch.</desc>
    <defs>
        <path id="path-1" d="M65.1358333,0 C75.175,0 80.1933333,0 85.5975,1.70833333 C91.4975,3.85583333 96.1441667,8.5025 98.2916667,14.4025 C100,19.8058333 100,24.8258333 100,34.8641667 L100,65.1358333 C100,75.175 100,80.1933333 98.2916667,85.5975 C96.1441667,91.4975 91.4975,96.1441667 85.5975,98.2908333 C80.1933333,100 75.175,100 65.1358333,100 L34.8641667,100 C24.825,100 19.8058333,100 14.4025,98.2908333 C8.5025,96.1441667 3.85583333,91.4975 1.70833333,85.5975 C0,80.1933333 0,75.175 0,65.1358333 L0,34.8641667 C0,24.8258333 0,19.8058333 1.70833333,14.4025 C3.85583333,8.5025 8.5025,3.85583333 14.4025,1.70833333 C19.8058333,0 24.825,0 34.8641667,0 L65.1358333,0 Z"></path>
    </defs>
    <g id="Page-1" stroke="none" stroke-width="1" fill="none" fill-rule="evenodd">
        <g id="qr">
            <mask id="mask-2" fill="white">
                <use xlink:href="#path-1"></use>
            </mask>
            <use id="Icon-Shape" fill="#FF0054" xlink:href="#path-1"></use>
            <path d="M20,20 L22.8571429,20 L22.8571429,22.8571429 L20,22.8571429 L20,20 Z M22.8571429,20 L25.7142857,20 L25.7142857,22.8571429 L22.8571429,22.8571429 L22.8571429,20 Z M25.7142857,20 L28.5714286,20 L28.5714286,22.8571429 L25.7142857,22.8571429 L25.7142857,20 Z M28.5714286,20 L31.4285714,20 L31.4285714,22.8571429 L28.5714286,22.8571429 L28.5714286,20 Z M31.4285714,20 L34.2857143,20 L34.2857143,22.8571429 L31.4285714,22.8571429 L31.4285714,20 Z M34.2857143,20 L37.1428571,20 L37.1428571,22.8571429 L34.2857143,22.8571429 L34.2857143,20 Z M37.1428571,20 L40,20 L40,22.8571429 L37.1428571,22.8571429 L37.1428571,20 Z M48.5714286,20 L51.4285714,20 L51.4285714,22.8571429 L48.5714286,22.8571429 L48.5714286,20 Z M51.4285714,20 L54.2857143,20 L54.2857143,22.8571429 L51.4285714,22.8571429 L51.4285714,20 Z M54.2857143,20 L57.1428571,20 L57.1428571,22.8571429 L54.2857143,22.8571429 L54.2857143,20 Z M60,20 L62.8571429,20 L62.8571429,22.8571429 L60,22.8571429 L60,20 Z M62.8571429,20 L65.7142857,20 L65.7142857,22.8571429 L62.8571429,22.8571429 L62.8571429,20 Z M65.7142857,20 L68.5714286,20 L68.5714286,22.8571429 L65.7142857,22.8571429 L65.7142857,20 Z M68.5714286,20 L71.4285714,20 L71.4285714,22.8571429 L68.5714286,22.8571429 L68.5714286,20 Z M71.4285714,20 L74.2857143,20 L74.2857143,22.8571429 L71.4285714,22.8571429 L71.4285714,20 Z M74.2857143,20 L77.1428571,20 L77.1428571,22.8571429 L74.2857143,22.8571429 L74.2857143,20 Z M77.1428571,20 L80,20 L80,22.8571429 L77.1428571,22.8571429 L77.1428571,20 Z M20,22.8571429 L22.8571429,22.8571429 L22.8571429,25.7142857 L20,25.7142857 L20,22.8571429 Z M37.1428571,22.8571429 L40,22.8571429 L40,25.7142857 L37.1428571,25.7142857 L37.1428571,22.8571429 Z M42.8571429,22.8571429 L45.7142857,22.8571429 L45.7142857,25.7142857 L42.8571429,25.7142857 L42.8571429,22.8571429 Z M45.7142857,22.8571429 L48.5714286,22.8571429 L48.5714286,25.7142857 L45.7142857,25.7142857 L45.7142857,22.8571429 Z M48.5714286,22.8571429 L51.4285714,22.8571429 L51.4285714,25.7142857 L48.5714286,25.7142857 L48.5714286,22.8571429 Z M54.2857143,22.8571429 L57.1428571,22.8571429 L57.1428571,25.7142857 L54.2857143,25.7142857 L54.2857143,22.8571429 Z M60,22.8571429 L62.8571429,22.8571429 L62.8571429,25.7142857 L60,25.7142857 L60,22.8571429 Z M77.1428571,22.8571429 L80,22.8571429 L80,25.7142857 L77.1428571,25.7142857 L77.1428571,22.8571429 Z M20,25.7142857 L22.8571429,25.7142857 L22.8571429,28.5714286 L20,28.5714286 L20,25.7142857 Z M25.7142857,25.7142857 L28.5714286,25.7142857 L28.5714286,28.5714286 L25.7142857,28.5714286 L25.7142857,25.7142857 Z M28.5714286,25.7142857 L31.4285714,25.7142857 L31.4285714,28.5714286 L28.5714286,28.5714286 L28.5714286,25.7142857 Z M31.4285714,25.7142857 L34.2857143,25.7142857 L34.2857143,28.5714286 L31.4285714,28.5714286 L31.4285714,25.7142857 Z M37.1428571,25.7142857 L40,25.7142857 L40,28.5714286 L37.1428571,28.5714286 L37.1428571,25.7142857 Z M48.5714286,25.7142857 L51.4285714,25.7142857 L51.4285714,28.5714286 L48.5714286,28.5714286 L48.5714286,25.7142857 Z M51.4285714,25.7142857 L54.2857143,25.7142857 L54.2857143,28.5714286 L51.4285714,28.5714286 L51.4285714,25.7142857 Z M54.2857143,25.7142857 L57.1428571,25.7142857 L57.1428571,28.5714286 L54.2857143,28.5714286 L54.2857143,25.7142857 Z M60,25.7142857 L62.8571429,25.7142857 L62.8571429,28.5714286 L60,28.5714286 L60,25.7142857 Z M65.7142857,25.7142857 L68.5714286,25.7142857 L68.5714286,28.5714286 L65.7142857,28.5714286 L65.7142857,25.7142857 Z M68.5714286,25.7142857 L71.4285714,25.7142857 L71.4285714,28.5714286 L68.5714286,28.5714286 L68.5714286,25.7142857 Z M71.4285714,25.7142857 L74.2857143,25.7142857 L74.2857143,28.5714286 L71.4285714,28.5714286 L71.4285714,25.7142857 Z M77.1428571,25.7142857 L80,25.7142857 L80,28.5714286 L77.1428571,28.5714286 L77.1428571,25.7142857 Z M20,28.5714286 L22.8571429,28.5714286 L22.8571429,31.4285714 L20,31.4285714 L20,28.5714286 Z M25.7142857,28.5714286 L28.5714286,28.5714286 L28.5714286,31.4285714 L25.7142857,31.4285714 L25.7142857,28.5714286 Z M28.5714286,28.5714286 L31.4285714,28.5714286 L31.4285714,31.4285714 L28.5714286,31.4285714 L28.5714286,28.5714286 Z M31.4285714,28.5714286 L34.2857143,28.5714286 L34.2857143,31.4285714 L31.4285714,31.4285714 L31.4285714,28.5714286 Z M37.1428571,28.5714286 L40,28.5714286 L40,31.4285714 L37.1428571,31.4285714 L37.1428571,28.5714286 Z M42.8571429,28.5714286 L45.7142857,28.5714286 L45.7142857,31.4285714 L42.8571429,31.4285714 L42.8571429,28.5714286 Z M45.7142857,28.5714286 L48.5714286,28.5714286 L48.5714286,31.4285714 L45.7142857,31.4285714 L45.7142857,28.5714286 Z M54.2857143,28.5714286 L57.1428571,28.5714286 L57.1428571,31.4285714 L54.2857143,31.4285714 L54.2857143,28.5714286 Z M60,28.5714286 L62.8571429,28.5714286 L62.8571429,31.4285714 L60,31.4285714 L60,28.5714286 Z M65.7142857,28.5714286 L68.5714286,28.5714286 L68.5714286,31.4285714 L65.7142857,31.4285714 L65.7142857,28.5714286 Z M68.5714286,28.5714286 L71.4285714,28.5714286 L71.4285714,31.4285714 L68.5714286,31.4285714 L68.5714286,28.5714286 Z M71.4285714,28.5714286 L74.2857143,28.5714286 L74.2857143,31.4285714 L71.4285714,31.4285714 L71.4285714,28.5714286 Z M77.1428571,28.5714286 L80,28.5714286 L80,31.4285714 L77.1428571,31.4285714 L77.1428571,28.5714286 Z M20,31.4285714 L22.8571429,31.4285714 L22.8571429,34.2857143 L20,34.2857143 L20,31.4285714 Z M25.7142857,31.4285714 L28.5714286,31.4285714 L28.5714286,34.2857143 L25.7142857,34.2857143 L25.7142857,31.4285714 Z M28.5714286,31.4285714 L31.4285714,31.4285714 L31.4285714,34.2857143 L28.5714286,34.2857143 L28.5714286,31.4285714 Z M31.4285714,31.4285714 L34.2857143,31.4285714 L34.2857143,34.2857143 L31.4285714,34.2857143 L31.4285714,31.4285714 Z M37.1428571,31.4285714 L40,31.4285714 L40,34.2857143 L37.1428571,34.2857143 L37.1428571,31.4285714 Z M45.7142857,31.4285714 L48.5714286,31.4285714 L48.5714286,34.2857143 L45.7142857,34.2857143 L45.7142857,31.4285714 Z M54.2857143,31.4285714 L57.1428571,31.4285714 L57.1428571,34.2857143 L54.2857143,34.2857143 L54.2857143,31.4285714 Z M60,31.4285714 L62.8571429,31.4285714 L62.8571429,34.2857143 L60,34.2857143 L60,31.4285714 Z M65.7142857,31.4285714 L68.5714286,31.4285714 L68.5714286,34.2857143 L65.7142857,34.2857143 L65.7142857,31.4285714 Z M68.5714286,31.4285714 L71.4285714,31.4285714 L71.4285714,34.2857143 L68.5714286,34.2857143 L68.5714286,31.4285714 Z M71.4285714,31.4285714 L74.2857143,31.4285714 L74.2857143,34.2857143 L71.4285714,34.2857143 L71.4285714,31.4285714 Z M77.1428571,31.4285714 L80,31.4285714 L80,34.2857143 L77.1428571,34.2857143 L77.1428571,31.4285714 Z M20,34.2857143 L22.8571429,34.2857143 L22.8571429,37.1428571 L20,37.1428571 L20,34.2857143 Z M37.1428571,34.2857143 L40,34.2857143 L40,37.1428571 L37.1428571,37.1428571 L37.1428571,34.2857143 Z M42.8571429,34.2857143 L45.7142857,34.2857143 L45.7142857,37.1428571 L42.8571429,37.1428571 L42.8571429,34.2857143 Z M51.4285714,34.2857143 L54.2857143,34.2857143 L54.2857143,37.1428571 L51.4285714,37.1428571 L51.4285714,34.2857143 Z M60,34.2857143 L62.8571429,34.2857143 L62.8571429,37.1428571 L60,37.1428571 L60,34.2857143 Z M77.1428571,34.2857143 L80,34.2857143 L80,37.1428571 L77.1428571,37.1428571 L77.1428571,34.2857143 Z M20,37.1428571 L22.8571429,37.1428571 L22.8571429,40 L20,40 L20,37.1428571 Z M22.8571429,37.1428571 L25.7142857,37.1428571 L25.7142857,40 L22.8571429,40 L22.8571429,37.1428571 Z M25.7142857,37.1428571 L28.5714286,37.1428571 L28.5714286,40 L25.7142857,40 L25.7142857,37.1428571 Z M28.5714286,37.1428571 L31.4285714,37.1428571 L31.4285714,40 L28.5714286,40 L28.5714286,37.1428571 Z M31.4285714,37.1428571 L34.2857143,37.1428571 L34.2857143,40 L31.4285714,40 L31.4285714,37.1428571 Z M34.2857143,37.1428571 L37.1428571,37.1428571 L37.1428571,40 L34.2857143,40 L34.2857143,37.1428571 Z M37.1428571,37.1428571 L40,37.1428571 L40,40 L37.1428571,40 L37.1428571,37.1428571 Z M42.8571429,37.1428571 L45.7142857,37.1428571 L45.7142857,40 L42.8571429,40 L42.8571429,37.1428571 Z M48.5714286,37.1428571 L51.4285714,37.1428571 L51.4285714,40 L48.5714286,40 L48.5714286,37.1428571 Z M54.2857143,37.1428571 L57.1428571,37.1428571 L57.1428571,40 L54.2857143,40 L54.2857143,37.1428571 Z M60,37.1428571 L62.8571429,37.1428571 L62.8571429,40 L60,40 L60,37.1428571 Z M62.8571429,37.1428571 L65.7142857,37.1428571 L65.7142857,40 L62.8571429,40 L62.8571429,37.1428571 Z M65.7142857,37.1428571 L68.5714286,37.1428571 L68.5714286,40 L65.7142857,40 L65.7142857,37.1428571 Z M68.5714286,37.1428571 L71.4285714,37.1428571 L71.4285714,40 L68.5714286,40 L68.5714286,37.1428571 Z M71.4285714,37.1428571 L74.2857143,37.1428571 L74.2857143,40 L71.4285714,40 L71.4285714,37.1428571 Z M74.2857143,37.1428571 L77.1428571,37.1428571 L77.1428571,40 L74.2857143,40 L74.2857143,37.1428571 Z M77.1428571,37.1428571 L80,37.1428571 L80,40 L77.1428571,40 L77.1428571,37.1428571 Z M45.7142857,40 L48.5714286,40 L48.5714286,42.8571429 L45.7142857,42.8571429 L45.7142857,40 Z M20,42.8571429 L22.8571429,42.8571429 L22.8571429,45.7142857 L20,45.7142857 L20,42.8571429 Z M22.8571429,42.8571429 L25.7142857,42.8571429 L25.7142857,45.7142857 L22.8571429,45.7142857 L22.8571429,42.8571429 Z M25.7142857,42.8571429 L28.5714286,42.8571429 L28.5714286,45.7142857 L25.7142857,45.7142857 L25.7142857,42.8571429 Z M28.5714286,42.8571429 L31.4285714,42.8571429 L31.4285714,45.7142857 L28.5714286,45.7142857 L28.5714286,42.8571429 Z M31.4285714,42.8571429 L34.2857143,42.8571429 L34.2857143,45.7142857 L31.4285714,45.7142857 L31.4285714,42.8571429 Z M37.1428571,42.8571429 L40,42.8571429 L40,45.7142857 L37.1428571,45.7142857 L37.1428571,42.8571429 Z M40,42.8571429 L42.8571429,42.8571429 L42.8571429,45.7142857 L40,45.7142857 L40,42.8571429 Z M42.8571429,42.8571429 L45.7142857,42.8571429 L45.7142857,45.7142857 L42.8571429,45.7142857 L42.8571429,42.8571429 Z M51.4285714,42.8571429 L54.2857143,42.8571429 L54.2857143,45.7142857 L51.4285714,45.7142857 L51.4285714,42.8571429 Z M57.1428571,42.8571429 L60,42.8571429 L60,45.7142857 L57.1428571,45.7142857 L57.1428571,42.8571429 Z M62.8571429,42.8571429 L65.7142857,42.8571429 L65.7142857,45.7142857 L62.8571429,45.7142857 L62.8571429,42.8571429 Z M68.5714286,42.8571429 L71.4285714,42.8571429 L71.4285714,45.7142857 L68.5714286,45.7142857 L68.5714286,42.8571429 Z M74.2857143,42.8571429 L77.1428571,42.8571429 L77.1428571,45.7142857 L74.2857143,45.7142857 L74.2857143,42.8571429 Z M31.4285714,45.7142857 L34.2857143,45.7142857 L34.2857143,48.5714286 L31.4285714,48.5714286 L31.4285714,45.7142857 Z M42.8571429,45.7142857 L45.7142857,45.7142857 L45.7142857,48.5714286 L42.8571429,48.5714286 L42.8571429,45.7142857 Z M45.7142857,45.7142857 L48.5714286,45.7142857 L48.5714286,48.5714286 L45.7142857,48.5714286 L45.7142857,45.7142857 Z M51.4285714,45.7142857 L54.2857143,45.7142857 L54.2857143,48.5714286 L51.4285714,48.5714286 L51.4285714,45.7142857 Z M54.2857143,45.7142857 L57.1428571,45.7142857 L57.1428571,48.5714286 L54.2857143,48.5714286 L54.2857143,45.7142857 Z M57.1428571,45.7142857 L60,45.7142857 L60,48.5714286 L57.1428571,48.5714286 L57.1428571,45.7142857 Z M60,45.7142857 L62.8571429,45.7142857 L62.8571429,48.5714286 L60,48.5714286 L60,45.7142857 Z M68.5714286,45.7142857 L71.4285714,45.7142857 L71.4285714,48.5714286 L68.5714286,48.5714286 L68.5714286,45.7142857 Z M77.1428571,45.7142857 L80,45.7142857 L80,48.5714286 L77.1428571,48.5714286 L77.1428571,45.7142857 Z M20,48.5714286 L22.8571429,48.5714286 L22.8571429,51.4285714 L20,51.4285714 L20,48.5714286 Z M25.7142857,48.5714286 L28.5714286,48.5714286 L28.5714286,51.4285714 L25.7142857,51.4285714 L25.7142857,48.5714286 Z M28.5714286,48.5714286 L31.4285714,48.5714286 L31.4285714,51.4285714 L28.5714286,51.4285714 L28.5714286,48.5714286 Z M31.4285714,48.5714286 L34.2857143,48.5714286 L34.2857143,51.4285714 L31.4285714,51.4285714 L31.4285714,48.5714286 Z M34.2857143,48.5714286 L37.1428571,48.5714286 L37.1428571,51.4285714 L34.2857143,51.4285714 L34.2857143,48.5714286 Z M37.1428571,48.5714286 L40,48.5714286 L40,51.4285714 L37.1428571,51.4285714 L37.1428571,48.5714286 Z M42.8571429,48.5714286 L45.7142857,48.5714286 L45.7142857,51.4285714 L42.8571429,51.4285714 L42.8571429,48.5714286 Z M45.7142857,48.5714286 L48.5714286,48.5714286 L48.5714286,51.4285714 L45.7142857,51.4285714 L45.7142857,48.5714286 Z M48.5714286,48.5714286 L51.4285714,48.5714286 L51.4285714,51.4285714 L48.5714286,51.4285714 L48.5714286,48.5714286 Z M54.2857143,48.5714286 L57.1428571,48.5714286 L57.1428571,51.4285714 L54.2857143,51.4285714 L54.2857143,48.5714286 Z M60,48.5714286 L62.8571429,48.5714286 L62.8571429,51.4285714 L60,51.4285714 L60,48.5714286 Z M62.8571429,48.5714286 L65.7142857,48.5714286 L65.7142857,51.4285714 L62.8571429,51.4285714 L62.8571429,48.5714286 Z M68.5714286,48.5714286 L71.4285714,48.5714286 L71.4285714,51.4285714 L68.5714286,51.4285714 L68.5714286,48.5714286 Z M74.2857143,48.5714286 L77.1428571,48.5714286 L77.1428571,51.4285714 L74.2857143,51.4285714 L74.2857143,48.5714286 Z M20,51.4285714 L22.8571429,51.4285714 L22.8571429,54.2857143 L20,54.2857143 L20,51.4285714 Z M34.2857143,51.4285714 L37.1428571,51.4285714 L37.1428571,54.2857143 L34.2857143,54.2857143 L34.2857143,51.4285714 Z M51.4285714,51.4285714 L54.2857143,51.4285714 L54.2857143,54.2857143 L51.4285714,54.2857143 L51.4285714,51.4285714 Z M54.2857143,51.4285714 L57.1428571,51.4285714 L57.1428571,54.2857143 L54.2857143,54.2857143 L54.2857143,51.4285714 Z M57.1428571,51.4285714 L60,51.4285714 L60,54.2857143 L57.1428571,54.2857143 L57.1428571,51.4285714 Z M60,51.4285714 L62.8571429,51.4285714 L62.8571429,54.2857143 L60,54.2857143 L60,51.4285714 Z M68.5714286,51.4285714 L71.4285714,51.4285714 L71.4285714,54.2857143 L68.5714286,54.2857143 L68.5714286,51.4285714 Z M71.4285714,51.4285714 L74.2857143,51.4285714 L74.2857143,54.2857143 L71.4285714,54.2857143 L71.4285714,51.4285714 Z M28.5714286,54.2857143 L31.4285714,54.2857143 L31.4285714,57.1428571 L28.5714286,57.1428571 L28.5714286,54.2857143 Z M34.2857143,54.2857143 L37.1428571,54.2857143 L37.1428571,57.1428571 L34.2857143,57.1428571 L34.2857143,54.2857143 Z M37.1428571,54.2857143 L40,54.2857143 L40,57.1428571 L37.1428571,57.1428571 L37.1428571,54.2857143 Z M40,54.2857143 L42.8571429,54.2857143 L42.8571429,57.1428571 L40,57.1428571 L40,54.2857143 Z M42.8571429,54.2857143 L45.7142857,54.2857143 L45.7142857,57.1428571 L42.8571429,57.1428571 L42.8571429,54.2857143 Z M45.7142857,54.2857143 L48.5714286,54.2857143 L48.5714286,57.1428571 L45.7142857,57.1428571 L45.7142857,54.2857143 Z M54.2857143,54.2857143 L57.1428571,54.2857143 L57.1428571,57.1428571 L54.2857143,57.1428571 L54.2857143,54.2857143 Z M62.8571429,54.2857143 L65.7142857,54.2857143 L65.7142857,57.1428571 L62.8571429,57.1428571 L62.8571429,54.2857143 Z M74.2857143,54.2857143 L77.1428571,54.2857143 L77.1428571,57.1428571 L74.2857143,57.1428571 L74.2857143,54.2857143 Z M42.8571429,57.1428571 L45.7142857,57.1428571 L45.7142857,60 L42.8571429,60 L42.8571429,57.1428571 Z M48.5714286,57.1428571 L51.4285714,57.1428571 L51.4285714,60 L48.5714286,60 L48.5714286,57.1428571 Z M54.2857143,57.1428571 L57.1428571,57.1428571 L57.1428571,60 L54.2857143,60 L54.2857143,57.1428571 Z M62.8571429,57.1428571 L65.7142857,57.1428571 L65.7142857,60 L62.8571429,60 L62.8571429,57.1428571 Z M68.5714286,57.1428571 L71.4285714,57.1428571 L71.4285714,60 L68.5714286,60 L68.5714286,57.1428571 Z M71.4285714,57.1428571 L74.2857143,57.1428571 L74.2857143,60 L71.4285714,60 L71.4285714,57.1428571 Z M74.2857143,57.1428571 L77.1428571,57.1428571 L77.1428571,60 L74.2857143,60 L74.2857143,57.1428571 Z M20,60 L22.8571429,60 L22.8571429,62.8571429 L20,62.8571429 L20,60 Z M22.8571429,60 L25.7142857,60 L25.7142857,62.8571429 L22.8571429,62.8571429 L22.8571429,60 Z M25.7142857,60 L28.5714286,60 L28.5714286,62.8571429 L25.7142857,62.8571429 L25.7142857,60 Z M28.5714286,60 L31.4285714,60 L31.4285714,62.8571429 L28.5714286,62.8571429 L28.5714286,60 Z M31.4285714,60 L34.2857143,60 L34.2857143,62.8571429 L31.4285714,62.8571429 L31.4285714,60 Z M34.2857143,60 L37.1428571,60 L37.1428571,62.8571429 L34.2857143,62.8571429 L34.2857143,60 Z M37.1428571,60 L40,60 L40,62.8571429 L37.1428571,62.8571429 L37.1428571,60 Z M42.8571429,60 L45.7142857,60 L45.7142857,62.8571429 L42.8571429,62.8571429 L42.8571429,60 Z M45.7142857,60 L48.5714286,60 L48.5714286,62.8571429 L45.7142857,62.8571429 L45.7142857,60 Z M51.4285714,60 L54.2857143,60 L54.2857143,62.8571429 L51.4285714,62.8571429 L51.4285714,60 Z M57.1428571,60 L60,60 L60,62.8571429 L57.1428571,62.8571429 L57.1428571,60 Z M65.7142857,60 L68.5714286,60 L68.5714286,62.8571429 L65.7142857,62.8571429 L65.7142857,60 Z M74.2857143,60 L77.1428571,60 L77.1428571,62.8571429 L74.2857143,62.8571429 L74.2857143,60 Z M20,62.8571429 L22.8571429,62.8571429 L22.8571429,65.7142857 L20,65.7142857 L20,62.8571429 Z M37.1428571,62.8571429 L40,62.8571429 L40,65.7142857 L37.1428571,65.7142857 L37.1428571,62.8571429 Z M62.8571429,62.8571429 L65.7142857,62.8571429 L65.7142857,65.7142857 L62.8571429,65.7142857 L62.8571429,62.8571429 Z M65.7142857,62.8571429 L68.5714286,62.8571429 L68.5714286,65.7142857 L65.7142857,65.7142857 L65.7142857,62.8571429 Z M68.5714286,62.8571429 L71.4285714,62.8571429 L71.4285714,65.7142857 L68.5714286,65.7142857 L68.5714286,62.8571429 Z M71.4285714,62.8571429 L74.2857143,62.8571429 L74.2857143,65.7142857 L71.4285714,65.7142857 L71.4285714,62.8571429 Z M74.2857143,62.8571429 L77.1428571,62.8571429 L77.1428571,65.7142857 L74.2857143,65.7142857 L74.2857143,62.8571429 Z M20,65.7142857 L22.8571429,65.7142857 L22.8571429,68.5714286 L20,68.5714286 L20,65.7142857 Z M25.7142857,65.7142857 L28.5714286,65.7142857 L28.5714286,68.5714286 L25.7142857,68.5714286 L25.7142857,65.7142857 Z M28.5714286,65.7142857 L31.4285714,65.7142857 L31.4285714,68.5714286 L28.5714286,68.5714286 L28.5714286,65.7142857 Z M31.4285714,65.7142857 L34.2857143,65.7142857 L34.2857143,68.5714286 L31.4285714,68.5714286 L31.4285714,65.7142857 Z M37.1428571,65.7142857 L40,65.7142857 L40,68.5714286 L37.1428571,68.5714286 L37.1428571,65.7142857 Z M42.8571429,65.7142857 L45.7142857,65.7142857 L45.7142857,68.5714286 L42.8571429,68.5714286 L42.8571429,65.7142857 Z M45.7142857,65.7142857 L48.5714286,65.7142857 L48.5714286,68.5714286 L45.7142857,68.5714286 L45.7142857,65.7142857 Z M48.5714286,65.7142857 L51.4285714,65.7142857 L51.4285714,68.5714286 L48.5714286,68.5714286 L48.5714286,65.7142857 Z M51.4285714,65.7142857 L54.2857143,65.7142857 L54.2857143,68.5714286 L51.4285714,68.5714286 L51.4285714,65.7142857 Z M57.1428571,65.7142857 L60,65.7142857 L60,68.5714286 L57.1428571,68.5714286 L57.1428571,65.7142857 Z M65.7142857,65.7142857 L68.5714286,65.7142857 L68.5714286,68.5714286 L65.7142857,68.5714286 L65.7142857,65.7142857 Z M68.5714286,65.7142857 L71.4285714,65.7142857 L71.4285714,68.5714286 L68.5714286,68.5714286 L68.5714286,65.7142857 Z M74.2857143,65.7142857 L77.1428571,65.7142857 L77.1428571,68.5714286 L74.2857143,68.5714286 L74.2857143,65.7142857 Z M20,68.5714286 L22.8571429,68.5714286 L22.8571429,71.4285714 L20,71.4285714 L20,68.5714286 Z M25.7142857,68.5714286 L28.5714286,68.5714286 L28.5714286,71.4285714 L25.7142857,71.4285714 L25.7142857,68.5714286 Z M28.5714286,68.5714286 L31.4285714,68.5714286 L31.4285714,71.4285714 L28.5714286,71.4285714 L28.5714286,68.5714286 Z M31.4285714,68.5714286 L34.2857143,68.5714286 L34.2857143,71.4285714 L31.4285714,71.4285714 L31.4285714,68.5714286 Z M37.1428571,68.5714286 L40,68.5714286 L40,71.4285714 L37.1428571,71.4285714 L37.1428571,68.5714286 Z M42.8571429,68.5714286 L45.7142857,68.5714286 L45.7142857,71.4285714 L42.8571429,71.4285714 L42.8571429,68.5714286 Z M45.7142857,68.5714286 L48.5714286,68.5714286 L48.5714286,71.4285714 L45.7142857,71.4285714 L45.7142857,68.5714286 Z M51.4285714,68.5714286 L54.2857143,68.5714286 L54.2857143,71.4285714 L51.4285714,71.4285714 L51.4285714,68.5714286 Z M54.2857143,68.5714286 L57.1428571,68.5714286 L57.1428571,71.4285714 L54.2857143,71.4285714 L54.2857143,68.5714286 Z M57.1428571,68.5714286 L60,68.5714286 L60,71.4285714 L57.1428571,71.4285714 L57.1428571,68.5714286 Z M60,68.5714286 L62.8571429,68.5714286 L62.8571429,71.4285714 L60,71.4285714 L60,68.5714286 Z M62.8571429,68.5714286 L65.7142857,68.5714286 L65.7142857,71.4285714 L62.8571429,71.4285714 L62.8571429,68.5714286 Z M68.5714286,68.5714286 L71.4285714,68.5714286 L71.4285714,71.4285714 L68.5714286,71.4285714 L68.5714286,68.5714286 Z M71.4285714,68.5714286 L74.2857143,68.5714286 L74.2857143,71.4285714 L71.4285714,71.4285714 L71.4285714,68.5714286 Z M20,71.4285714 L22.8571429,71.4285714 L22.8571429,74.2857143 L20,74.2857143 L20,71.4285714 Z M25.7142857,71.4285714 L28.5714286,71.4285714 L28.5714286,74.2857143 L25.7142857,74.2857143 L25.7142857,71.4285714 Z M28.5714286,71.4285714 L31.4285714,71.4285714 L31.4285714,74.2857143 L28.5714286,74.2857143 L28.5714286,71.4285714 Z M31.4285714,71.4285714 L34.2857143,71.4285714 L34.2857143,74.2857143 L31.4285714,74.2857143 L31.4285714,71.4285714 Z M37.1428571,71.4285714 L40,71.4285714 L40,74.2857143 L37.1428571,74.2857143 L37.1428571,71.4285714 Z M42.8571429,71.4285714 L45.7142857,71.4285714 L45.7142857,74.2857143 L42.8571429,74.2857143 L42.8571429,71.4285714 Z M45.7142857,71.4285714 L48.5714286,71.4285714 L48.5714286,74.2857143 L45.7142857,74.2857143 L45.7142857,71.4285714 Z M54.2857143,71.4285714 L57.1428571,71.4285714 L57.1428571,74.2857143 L54.2857143,74.2857143 L54.2857143,71.4285714 Z M60,71.4285714 L62.8571429,71.4285714 L62.8571429,74.2857143 L60,74.2857143 L60,71.4285714 Z M62.8571429,71.4285714 L65.7142857,71.4285714 L65.7142857,74.2857143 L62.8571429,74.2857143 L62.8571429,71.4285714 Z M68.5714286,71.4285714 L71.4285714,71.4285714 L71.4285714,74.2857143 L68.5714286,74.2857143 L68.5714286,71.4285714 Z M71.4285714,71.4285714 L74.2857143,71.4285714 L74.2857143,74.2857143 L71.4285714,74.2857143 L71.4285714,71.4285714 Z M20,74.2857143 L22.8571429,74.2857143 L22.8571429,77.1428571 L20,77.1428571 L20,74.2857143 Z M37.1428571,74.2857143 L40,74.2857143 L40,77.1428571 L37.1428571,77.1428571 L37.1428571,74.2857143 Z M42.8571429,74.2857143 L45.7142857,74.2857143 L45.7142857,77.1428571 L42.8571429,77.1428571 L42.8571429,74.2857143 Z M51.4285714,74.2857143 L54.2857143,74.2857143 L54.2857143,77.1428571 L51.4285714,77.1428571 L51.4285714,74.2857143 Z M54.2857143,74.2857143 L57.1428571,74.2857143 L57.1428571,77.1428571 L54.2857143,77.1428571 L54.2857143,74.2857143 Z M57.1428571,74.2857143 L60,74.2857143 L60,77.1428571 L57.1428571,77.1428571 L57.1428571,74.2857143 Z M60,74.2857143 L62.8571429,74.2857143 L62.8571429,77.1428571 L60,77.1428571 L60,74.2857143 Z M62.8571429,74.2857143 L65.7142857,74.2857143 L65.7142857,77.1428571 L62.8571429,77.1428571 L62.8571429,74.2857143 Z M65.7142857,74.2857143 L68.5714286,74.2857143 L68.5714286,77.1428571 L65.7142857,77.1428571 L65.7142857,74.2857143 Z M71.4285714,74.2857143 L74.2857143,74.2857143 L74.2857143,77.1428571 L71.4285714,77.1428571 L71.4285714,74.2857143 Z M20,77.1428571 L22.8571429,77.1428571 L22.8571429,80 L20,80 L20,77.1428571 Z M22.8571429,77.1428571 L25.7142857,77.1428571 L25.7142857,80 L22.8571429,80 L22.8571429,77.1428571 Z M25.7142857,77.1428571 L28.5714286,77.1428571 L28.5714286,80 L25.7142857,80 L25.7142857,77.1428571 Z M28.5714286,77.1428571 L31.4285714,77.1428571 L31.4285714,80 L28.5714286,80 L28.5714286,77.1428571 Z M31.4285714,77.1428571 L34.2857143,77.1428571 L34.2857143,80 L31.4285714,80 L31.4285714,77.1428571 Z M34.2857143,77.1428571 L37.1428571,77.1428571 L37.1428571,80 L34.2857143,80 L34.2857143,77.1428571 Z M37.1428571,77.1428571 L40,77.1428571 L40,80 L37.1428571,80 L37.1428571,77.1428571 Z M42.8571429,77.1428571 L45.7142857,77.1428571 L45.7142857,80 L42.8571429,80 L42.8571429,77.1428571 Z M48.5714286,77.1428571 L51.4285714,77.1428571 L51.4285714,80 L48.5714286,80 L48.5714286,77.1428571 Z M54.2857143,77.1428571 L57.1428571,77.1428571 L57.1428571,80 L54.2857143,80 L54.2857143,77.1428571 Z M62.8571429,77.1428571 L65.7142857,77.1428571 L65.7142857,80 L62.8571429,80 L62.8571429,77.1428571 Z M65.7142857,77.1428571 L68.5714286,77.1428571 L68.5714286,80 L65.7142857,80 L65.7142857,77.1428571 Z M71.4285714,77.1428571 L74.2857143,77.1428571 L74.2857143,80 L71.4285714,80 L71.4285714,77.1428571 Z M74.2857143,77.1428571 L77.1428571,77.1428571 L77.1428571,80 L74.2857143,80 L74.2857143,77.1428571 Z" id="Shape" fill="#FFFFFF" mask="url(#mask-2)"></path>
        </g>
    </g>
</svg>