<?xml version="1.0" encoding="UTF-8" standalone="no"?>
<svg width="100px" height="100px" viewBox="0 0 100 100" version="1.1" xmlns="http://www.w3.org/2000/svg" xmlns:xlink="http://www.w3.org/1999/xlink">
    <!-- Generator: Sketch 3.6.1 (26313) - http://www.bohemiancoding.com/sketch -->
    <title>search</title>
    <desc>Created with Sketch.</desc>
    <defs></defs>
    <g id="Page-1" stroke="none" stroke-width="1" fill="none" fill-rule="evenodd">
        <g id="search">
            <path d="M65.1358333,0 C75.175,0 80.1933333,0 85.5975,1.70833333 C91.4975,3.85583333 96.1441667,8.5025 98.2916667,14.4025 C100,19.8058333 100,24.8258333 100,34.8641667 L100,65.1358333 C100,75.175 100,80.1933333 98.2916667,85.5975 C96.1441667,91.4975 91.4975,96.1441667 85.5975,98.2908333 C80.1933333,100 75.175,100 65.1358333,100 L34.8641667,100 C24.825,100 19.8058333,100 14.4025,98.2908333 C8.5025,96.1441667 3.85583333,91.4975 1.70833333,85.5975 C0,80.1933333 0,75.175 0,65.1358333 L0,34.8641667 C0,24.8258333 0,19.8058333 1.70833333,14.4025 C3.85583333,8.5025 8.5025,3.85583333 14.4025,1.70833333 C19.8058333,0 24.825,0 34.8641667,0 L65.1358333,0 Z" id="Icon-Shape" fill="#7600FF"></path>
            <path d="M79.6889415,78.1864621 L62.7937217,61.2904724 C66.8200674,56.9041166 69.2978187,51.0731461 69.2978187,44.6484691 C69.2978187,31.0360841 58.2615374,20 44.6489093,20 C31.0362812,20 20,31.0360841 20,44.6484691 C20,58.260854 31.0362812,69.2969381 44.6489093,69.2969381 C51.0726294,69.2969381 56.9047757,66.8192312 61.2912099,62.7929573 L78.1875014,79.688947 C78.6022461,80.1036843 79.2741968,80.1036843 79.6889415,79.688947 C80.1036862,79.2731381 80.1036862,78.6011994 79.6889415,78.1864621 L79.6889415,78.1864621 Z M44.6489093,67.153593 C32.2194289,67.153593 22.1433834,57.0787992 22.1433834,44.6484691 C22.1433834,32.2192106 32.2194289,22.1433451 44.6489093,22.1433451 C57.0783898,22.1433451 67.1544352,32.2192106 67.1544352,44.6484691 C67.1544352,57.0787992 57.0783898,67.153593 44.6489093,67.153593 L44.6489093,67.153593 Z" id="Shape" fill="#FFFFFF"></path>
        </g>
    </g>
</svg>